<svg xmlns="http://www.w3.org/2000/svg" viewBox="0 0 1000 1000" role="img" aria-labelledby="title desc">
  <title id="title">Congregation Tiferes Yaakov logo</title>
  <desc id="desc">Circular blue emblem with congregation name wrapped around symbols of care, learning, and community support.</desc>
  <defs>
    <linearGradient id="blue" x1="0%" y1="0%" x2="100%" y2="100%">
      <stop offset="0%" stop-color="#4e86b3" />
      <stop offset="100%" stop-color="#205e8f" />
    </linearGradient>
    <path id="topArc" d="M 150 500 A 350 350 0 0 1 850 500" />
    <path id="bottomArc" d="M 850 500 A 350 350 0 0 1 150 500" />
  </defs>

  <g fill="url(#blue)" stroke="#183f61" stroke-width="6">
    <text font-family="Arial, Helvetica, sans-serif" font-size="86" font-weight="700" letter-spacing="7">
      <textPath href="#topArc" startOffset="50%" text-anchor="middle">CONGREGATION</textPath>
    </text>
    <text font-family="Arial, Helvetica, sans-serif" font-size="86" font-weight="700" letter-spacing="7">
      <textPath href="#bottomArc" startOffset="50%" text-anchor="middle">TIFERES YAAKOV</textPath>
    </text>

    <path d="M262 330c0-65 44-112 104-112s104 47 104 112v252c0 8-6 14-14 14h-39c-8 0-14-6-14-14V356c0-37-22-60-51-60-30 0-51 23-51 60v212c0 7-5 13-12 14l-44 8c-10 2-18-6-18-16V330Z"/>
    <circle cx="344" cy="472" r="22"/>
    <path d="M309 513c14-13 27-20 35-20 10 0 24 7 38 20v76c-18 7-44 12-73 15V513Z"/>

    <path d="M456 455c0-10 8-18 18-18h29c9 0 17 7 18 16l3 69c13-7 29-11 45-11 38 0 74 21 96 56 8 12 3 28-11 34-55 24-119 17-176-18-16-10-25-27-25-46l3-82Z"/>
    <path d="M456 525c23-9 45-9 67 0 21-9 43-9 65 0-12 10-27 15-44 15-14 0-28-3-41-10-13 7-27 10-41 10-17 0-33-5-46-15Z"/>

    <path d="M623 468c0-9 6-16 15-18l37-9c5-1 10 1 13 6l25 52 24-52c3-5 8-8 14-6l59 17c9 3 14 11 14 20v39c-10 12-18 28-22 48l22 102-16 15-36-101-18 150c-1 8-7 13-15 13h-36c-8 0-14-6-15-14l-12-108-13 108c-1 8-7 14-15 14h-34c-8 0-14-5-15-13l-20-221v-43Z"/>
    <path d="M676 373c0-23 16-39 38-39 21 0 37 16 37 39v23c0 27-17 43-37 43-22 0-38-16-38-43v-23Zm-34 2c-9 0-17 8-17 17s8 17 17 17h109c9 0 17-8 17-17s-8-17-17-17H642Z"/>
    <path d="M805 441c0-25 17-44 40-44s40 19 40 44v35c0 28-18 47-40 47s-40-19-40-47v-35Zm20 3v30c0 15 9 25 20 25s20-10 20-25v-30c0-15-8-24-20-24s-20 9-20 24Z"/>
    <path d="M796 515c10-33 33-60 53-60 13 0 24 7 34 20l35 155-8 12-20-12-28-97-7 196c0 8-6 14-14 14h-29c-8 0-14-6-14-14l-3-214Z"/>

    <path d="M230 607c59 16 102 20 138 11 32-8 55-13 68-13 39 0 88 16 148 49 65 35 122 53 172 53 17 0 27 7 27 19 0 15-16 30-46 46-58 5-124-3-198-23 74 39 132 58 176 58 36 0 67-12 95-37 21-19 42-27 62-25 10 1 17 6 20 13 6 14-2 35-23 63-21 29-46 44-75 44-55 0-120-18-195-55-91-45-153-67-186-67-19 0-43 2-72 7-42-22-79-77-111-163Z"/>
  </g>
</svg>
